<?xml version="1.0" encoding="UTF-8" standalone="no"?>
<!DOCTYPE svg PUBLIC "-//W3C//DTD SVG 1.1//EN" "http://www.w3.org/Graphics/SVG/1.1/DTD/svg11.dtd">
<svg version="1.1" xmlns="http://www.w3.org/2000/svg" xmlns:xlink="http://www.w3.org/1999/xlink" preserveAspectRatio="xMidYMid meet" viewBox="0 0 640 640" width="640" height="640"><defs><path d="M255.63 63.42L255.63 63.42L255.63 93.8L255.63 93.8L255.63 63.42Z" id="areujRAh9"></path><path d="M255.63 22.28L258.29 22.28L258.29 93.8L255.63 93.8L255.63 22.28Z" id="ddfUjSysI"></path><path d="M258.29 24.94L258.29 22.03L464.62 22.28L464.62 25.18L258.29 24.94Z" id="csatk3O4B"></path><path d="M464.82 595.63L462.16 595.63L461.85 26.65L464.51 26.64L464.82 595.63Z" id="a1WN0UlFC6"></path><path d="M612.9 596.94L612.88 599.6L43.9 597.24L43.91 594.58L612.9 596.94Z" id="aYpLMp9G"></path><path d="M325.95 160.25C325.95 196.93 295.04 226.71 256.96 226.71C218.89 226.71 187.97 196.93 187.97 160.25C187.97 123.58 218.89 93.8 256.96 93.8C295.04 93.8 325.95 123.58 325.95 160.25Z" id="afwzwjzzW"></path><path d="M254.3 228.36L256.96 228.36L256.96 404.45L254.3 404.45L254.3 228.36Z" id="c1whNNBWGJ"></path><path d="M174 242.37L175.92 240.18L254.47 308.95L252.55 311.14L174 242.37Z" id="p5cMaW0tx"></path><path d="M178.82 228.36C178.82 238.82 169.89 247.31 158.89 247.31C147.89 247.31 138.95 238.82 138.95 228.36C138.95 217.9 147.89 209.4 158.89 209.4C169.89 209.4 178.82 217.9 178.82 228.36Z" id="a3oO2xWUP0"></path><path d="M373.33 232.34C373.33 242.8 364.4 251.29 353.4 251.29C342.4 251.29 333.46 242.8 333.46 232.34C333.46 221.88 342.4 213.38 353.4 213.38C364.4 213.38 373.33 221.88 373.33 232.34Z" id="a1uiEoDtZR"></path><path d="M256.11 312.7L254.3 310.43L336.04 245.47L337.85 247.75L256.11 312.7Z" id="bdZYmBVNU"></path><path d="M202.8 529.95L200.35 528.91L253.19 404.55L255.63 405.59L202.8 529.95Z" id="d1F0d8OTge"></path><path d="M145.01 528.59L145.08 525.69L203 527.05L202.93 529.95L145.01 528.59Z" id="a45Rur4CKz"></path></defs><g><g><g><use xlink:href="#areujRAh9" opacity="1" fill="#12faac" fill-opacity="1"></use></g><g><use xlink:href="#ddfUjSysI" opacity="1" fill="#000000" fill-opacity="1"></use><g><use xlink:href="#ddfUjSysI" opacity="1" fill-opacity="0" stroke="#000000" stroke-width="4" stroke-opacity="1"></use></g></g><g><use xlink:href="#csatk3O4B" opacity="1" fill="#000000" fill-opacity="1"></use><g><use xlink:href="#csatk3O4B" opacity="1" fill-opacity="0" stroke="#000000" stroke-width="4" stroke-opacity="1"></use></g></g><g><use xlink:href="#a1WN0UlFC6" opacity="1" fill="#000000" fill-opacity="1"></use><g><use xlink:href="#a1WN0UlFC6" opacity="1" fill-opacity="0" stroke="#000000" stroke-width="4" stroke-opacity="1"></use></g></g><g><use xlink:href="#aYpLMp9G" opacity="1" fill="#000000" fill-opacity="1"></use><g><use xlink:href="#aYpLMp9G" opacity="1" fill-opacity="0" stroke="#000000" stroke-width="4" stroke-opacity="1"></use></g></g><g><use xlink:href="#afwzwjzzW" opacity="1" fill="#ffffff" fill-opacity="0"></use><g><use xlink:href="#afwzwjzzW" opacity="1" fill-opacity="0" stroke="#000000" stroke-width="5" stroke-opacity="1"></use></g></g><g><use xlink:href="#c1whNNBWGJ" opacity="1" fill="#000000" fill-opacity="1"></use><g><use xlink:href="#c1whNNBWGJ" opacity="1" fill-opacity="0" stroke="#000000" stroke-width="4" stroke-opacity="1"></use></g></g><g><use xlink:href="#p5cMaW0tx" opacity="1" fill="#000000" fill-opacity="1"></use><g><use xlink:href="#p5cMaW0tx" opacity="1" fill-opacity="0" stroke="#000000" stroke-width="4" stroke-opacity="1"></use></g></g><g><use xlink:href="#a3oO2xWUP0" opacity="1" fill="#ffffff" fill-opacity="0"></use><g><use xlink:href="#a3oO2xWUP0" opacity="1" fill-opacity="0" stroke="#000000" stroke-width="6" stroke-opacity="1"></use></g></g><g><use xlink:href="#a1uiEoDtZR" opacity="1" fill="#ffffff" fill-opacity="0"></use><g><use xlink:href="#a1uiEoDtZR" opacity="1" fill-opacity="0" stroke="#000000" stroke-width="6" stroke-opacity="1"></use></g></g><g><use xlink:href="#bdZYmBVNU" opacity="1" fill="#000000" fill-opacity="1"></use><g><use xlink:href="#bdZYmBVNU" opacity="1" fill-opacity="0" stroke="#000000" stroke-width="4" stroke-opacity="1"></use></g></g><g><use xlink:href="#d1F0d8OTge" opacity="1" fill="#000000" fill-opacity="1"></use><g><use xlink:href="#d1F0d8OTge" opacity="1" fill-opacity="0" stroke="#000000" stroke-width="4" stroke-opacity="1"></use></g></g><g><use xlink:href="#a45Rur4CKz" opacity="1" fill="#000000" fill-opacity="1"></use><g><use xlink:href="#a45Rur4CKz" opacity="1" fill-opacity="0" stroke="#000000" stroke-width="4" stroke-opacity="1"></use></g></g></g></g></svg>