<?xml version="1.0" encoding="UTF-8" standalone="no"?>
<!DOCTYPE svg PUBLIC "-//W3C//DTD SVG 1.1//EN" "http://www.w3.org/Graphics/SVG/1.1/DTD/svg11.dtd">
<svg version="1.1" xmlns="http://www.w3.org/2000/svg" xmlns:xlink="http://www.w3.org/1999/xlink" preserveAspectRatio="xMidYMid meet" viewBox="0 0 640 640" width="640" height="640"><defs><path d="M255.63 63.42L255.63 63.42L255.63 93.8L255.63 93.8L255.63 63.42Z" id="areujRAh9"></path><path d="M255.63 22.28L258.29 22.28L258.29 93.8L255.63 93.8L255.63 22.28Z" id="ddfUjSysI"></path><path d="M258.29 24.94L258.29 22.03L464.62 22.28L464.62 25.18L258.29 24.94Z" id="csatk3O4B"></path><path d="M464.82 595.63L462.16 595.63L461.85 26.65L464.51 26.64L464.82 595.63Z" id="a1WN0UlFC6"></path><path d="M612.9 596.94L612.88 599.6L43.9 597.24L43.91 594.58L612.9 596.94Z" id="aYpLMp9G"></path><path d="M325.95 160.25C325.95 196.93 295.04 226.71 256.96 226.71C218.89 226.71 187.97 196.93 187.97 160.25C187.97 123.58 218.89 93.8 256.96 93.8C295.04 93.8 325.95 123.58 325.95 160.25Z" id="afwzwjzzW"></path><path d="M254.3 228.36L256.96 228.36L256.96 404.45L254.3 404.45L254.3 228.36Z" id="c1whNNBWGJ"></path></defs><g><g><g><use xlink:href="#areujRAh9" opacity="1" fill="#12faac" fill-opacity="1"></use></g><g><use xlink:href="#ddfUjSysI" opacity="1" fill="#000000" fill-opacity="1"></use><g><use xlink:href="#ddfUjSysI" opacity="1" fill-opacity="0" stroke="#000000" stroke-width="4" stroke-opacity="1"></use></g></g><g><use xlink:href="#csatk3O4B" opacity="1" fill="#000000" fill-opacity="1"></use><g><use xlink:href="#csatk3O4B" opacity="1" fill-opacity="0" stroke="#000000" stroke-width="4" stroke-opacity="1"></use></g></g><g><use xlink:href="#a1WN0UlFC6" opacity="1" fill="#000000" fill-opacity="1"></use><g><use xlink:href="#a1WN0UlFC6" opacity="1" fill-opacity="0" stroke="#000000" stroke-width="4" stroke-opacity="1"></use></g></g><g><use xlink:href="#aYpLMp9G" opacity="1" fill="#000000" fill-opacity="1"></use><g><use xlink:href="#aYpLMp9G" opacity="1" fill-opacity="0" stroke="#000000" stroke-width="4" stroke-opacity="1"></use></g></g><g><use xlink:href="#afwzwjzzW" opacity="1" fill="#ffffff" fill-opacity="0"></use><g><use xlink:href="#afwzwjzzW" opacity="1" fill-opacity="0" stroke="#000000" stroke-width="5" stroke-opacity="1"></use></g></g><g><use xlink:href="#c1whNNBWGJ" opacity="1" fill="#000000" fill-opacity="1"></use><g><use xlink:href="#c1whNNBWGJ" opacity="1" fill-opacity="0" stroke="#000000" stroke-width="4" stroke-opacity="1"></use></g></g></g></g></svg>